<svg xmlns="http://www.w3.org/2000/svg" width="361.681" height="361.681"><path d="M345.869 208.3c-3.116-23.269-11.175-41.757-24.68-56.502-20.849-22.761-48.099-29.273-74.075-17.684-19.354 8.641-30.444 25.298-37.933 38.854-1.867 3.366-3.513 6.857-5.164 10.331-2.498 5.281-4.87 10.26-7.933 14.823-8.274 12.273-13.745 14.796-19.422 14.796-1.781 0-3.726-.265-5.939-.805-5.017-1.243-9.851-3.603-14.961-6.101-.471-.217-.946-.457-1.408-.673 8.848-5.681 16.393-13.583 22.458-23.515 10.919-17.895 13.571-37.062 7.653-55.458-7.389-22.959-24.175-35.566-49.896-37.443-30.129-2.195-57.346 5.818-83.815 24.5-4.78 3.387-5.738 7.47-2.927 12.469 3.215 5.749 6.227 11.598 9.253 17.438l12.28 23.68 4.789-3.104c.862-.535 1.543-.967 2.195-1.465 12.472-9.347 25.778-16.264 39.581-20.561 11.094-3.449 21.122-2.903 30.756 1.637 6.906 3.251 10.418 8.656 10.437 16.054.018 6.479-3.291 11.535-9.821 15.009-13.655 7.281-28.265 9.205-44.814 5.903-3.062-.604-6.104-1.24-9.665-1.973l-7.368-1.531 1.846 5.833c2.083 6.591 1.739 14.985 1.408 23.092-.609 14.436-1.213 29.363 12.316 34.695 6.917 2.732 16.159.493 24.484-2.054 5.726-1.753 10.989-3.471 15.033-2.636 12.108 2.468 20.011 8.389 23.491 17.576 4.918 12.964 2.618 25.316-6.806 36.731-7.681 9.313-18.318 14.754-33.501 17.131-26.292 4.072-48.393-3.398-65.533-22.241-14.568-16.021-24.611-36.173-30.697-61.609-1.186-5.014-2.03-10.269-2.84-15.36a351.064 351.064 0 00-1.18-7.17l-.457-2.666-6.842-.708-1.048 5.956c-.394 2.139-.793 4.258-.976 6.401-2.6 30.949 3.45 61.501 17.973 90.786 12.865 25.899 32.951 44.268 59.729 54.603 10.89 4.203 22.071 6.341 33.249 6.341 9.001 0 18.096-1.394 27.037-4.144 16.522-5.032 28.931-14.099 36.9-26.938 15.78-25.4 17.275-54.343 4.558-88.456-.847-2.276-1.859-4.426-2.934-6.624 2.873.36 5.647.667 8.439.727l2.799.042c5.476 0 11.799-.378 18.218-2.203l-3.435 6.646a49.174 49.174 0 00-1.405 2.799c-.39.858-.648 1.825-.78 2.948-2.732 22.271-.336 40.286 7.542 56.691 9.602 19.996 28.601 31.921 50.818 31.921a59.502 59.502 0 0029.279-7.728c28.229-16.026 43.163-41.962 45.673-79.294.751-11.503.151-24.13-1.939-39.767zm-122.876 24.86c4.563-1.646 9.127-4.102 13.427-7.812 10.021-8.641 16.645-19.696 23.046-30.396l1.478-2.474c4.558-7.59 10.214-16.15 17.504-22.08 4.432-3.597 9.788-5.569 15.107-5.569 8.84 0 16.201 5.158 20.236 14.163 8.305 18.549 9.464 37.89 3.495 57.514-7.235 23.791-30 41.049-54.133 41.049a52.56 52.56 0 01-11.188-1.213c-13.379-2.967-23.479-13.175-25.736-26.062-.36-2.065-.763-4.125-1.201-6.419l-2.035-10.701z"/><path d="M184.148 98.82c12.166 12.151 26.95 19.012 43.973 20.414 2.979.247 5.938.363 8.857.363 20.254 0 39.907-5.54 60.132-16.946 8.46-4.792 13.042-8.713 22.542-18.086 2.035-2.015 3.057-4.474 2.93-7.095-.33-6.918-8.178-13.318-17.264-20.729-5.08-4.131-10.334-8.404-13.433-12.316l-2.762-3.486-4.828 5.957c-1.135 1.408-2.155 2.702-3.236 3.924-7.08 8.007-15.577 14.363-25.965 19.438-24.464 11.965-47.09 9.788-67.677-6.605-11.442-9.094-18.706-19.098-22.191-30.615l-4.173-13.748-2.774 14.093c-1.777 8.989-1.102 18.254 2.141 29.144 4.66 15.748 14.609 27.194 23.728 36.293z"/><path d="M197.959 46.356a2039.858 2039.858 0 0016.003 14.886l9.193 8.518 9.686-9.446c7.428-7.236 14.646-14.271 21.768-21.44 1.897-1.925 2.882-7.017.45-9.416-7.86-7.692-15.847-15.243-23.209-22.179L224.152 0l-2.45 2.216c-2.763 2.465-5.452 4.837-8.077 7.157-5.584 4.93-10.874 9.584-15.954 14.553-4.78 4.669-7.656 7.491-7.626 11.289.042 3.765 2.846 6.383 7.914 11.141z"/></svg>