<svg xmlns="http://www.w3.org/2000/svg" height="378.427" width="242.12"><path d="M161.75 202.773h27.466v122.415h-87.825c-35.268 0-48.492-13.225-48.492-48.49v-73.925h27.467v74.602c0 15.6 6.104 22.042 20.346 22.042h61.037zM26.448 26.443h189.218v325.534H26.449zM0 378.425h242.116V-.007H0zM148.187 106.81H80.366V79.003h67.82c10.171 0 14.92 5.426 14.92 13.564s-4.07 14.242-14.92 14.242zm42.386-17.294c0-20.346-9.833-36.283-38.658-36.283H52.899v122.413h27.467V132.58h63.411c14.243 0 17.972 4.07 17.972 18.312v24.753h27.467v-29.162c0-14.546-5.16-23.079-16.621-25.982 11.924-4.03 17.978-15.56 17.978-30.986" fill="#231f20"/></svg>